{
  "accessors": [
    {
      "bufferView": 1,
      "componentType": 5126,
      "count": 65532,
      "max": [
        2.7080135345458984,
        3.7570741176605225,
        0.35963922739028931
      ],
      "min": [
        -0.39374527335166931,
        0.68302470445632935,
        -0.35963919758796692
      ],
      "type": "VEC3"
    },
    {
      "bufferView": 1,
      "byteOffset": 786384,
      "componentType": 5126,
      "count": 65532,
      "max": [
        0.99998593330383301,
        0.99998587369918823,
        0.99995273351669312
      ],
      "min": [
        -0.99998593330383301,
        -0.99998587369918823,
        -0.99993431568145752
      ],
      "type": "VEC3"
    },
    {
      "bufferView": 0,
      "componentType": 5125,
      "count": 375084,
      "max": [
        65531
      ],
      "min": [
        0
      ],
      "type": "SCALAR"
    },
    {
      "bufferView": 1,
      "byteOffset": 1572768,
      "componentType": 5126,
      "count": 21887,
      "max": [
        2.7080135345458984,
        3.7569205760955811,
        0.35963922739028931
      ],
      "min": [
        -0.39183613657951355,
        0.6553153395652771,
        -0.35963919758796692
      ],
      "type": "VEC3"
    },
    {
      "bufferView": 1,
      "byteOffset": 1835412,
      "componentType": 5126,
      "count": 21887,
      "max": [
        0.99971950054168701,
        0.99993205070495605,
        0.99995273351669312
      ],
      "min": [
        -0.99945366382598877,
        -0.99991893768310547,
        -0.99993431568145752
      ],
      "type": "VEC3"
    },
    {
      "bufferView": 0,
      "byteOffset": 1500336,
      "componentType": 5125,
      "count": 104187,
      "max": [
        21886
      ],
      "min": [
        0
      ],
      "type": "SCALAR"
    }
  ],
  "asset": {
    "extras": {
      "author": "Parker (https://sketchfab.com/axelviii)",
      "license": "CC-BY-4.0 (http://creativecommons.org/licenses/by/4.0/)",
      "source": "https://sketchfab.com/models/babb7ca3a05746c0b831d05c6c4602a0",
      "title": "Voronoi Bracelet(1)"
    },
    "generator": "Sketchfab-3.18.2",
    "version": "2.0"
  },
  "bufferViews": [
    {
      "buffer": 0,
      "byteLength": 1917084,
      "byteOffset": 0,
      "name": "floatBufferViews",
      "target": 34963
    },
    {
      "buffer": 0,
      "byteLength": 2098056,
      "byteOffset": 1917084,
      "byteStride": 12,
      "name": "floatBufferViews",
      "target": 34962
    }
  ],
  "buffers": [
    {
      "byteLength": 4015140,
      "uri": "scene.bin"
    }
  ],
  "materials": [
    {
      "doubleSided": true,
      "emissiveFactor": [
        0,
        0,
        0
      ],
      "name": "Scene_-_Root",
      "pbrMetallicRoughness": {
        "baseColorFactor": [
          0.5,
          0.5,
          0.5,
          1
        ],
        "metallicFactor": 0,
        "roughnessFactor": 0.59999999999999998
      }
    }
  ],
  "meshes": [
    {
      "primitives": [
        {
          "attributes": {
            "NORMAL": 1,
            "POSITION": 0
          },
          "indices": 2,
          "material": 0,
          "mode": 4
        }
      ]
    },
    {
      "primitives": [
        {
          "attributes": {
            "NORMAL": 4,
            "POSITION": 3
          },
          "indices": 5,
          "material": 0,
          "mode": 4
        }
      ]
    }
  ],
  "nodes": [
    {
      "children": [
        1
      ],
      "name": "RootNode (gltf orientation matrix)",
      "rotation": [
        -0.70710678118654746,
        -0,
        -0,
        0.70710678118654757
      ]
    },
    {
      "children": [
        2
      ],
      "name": "RootNode (model correction matrix)"
    },
    {
      "children": [
        3,
        4
      ],
      "name": "VoronoiBracelet(1).stl.cleaner"
    },
    {
      "mesh": 0,
      "name": ""
    },
    {
      "mesh": 1,
      "name": ""
    }
  ],
  "scene": 0,
  "scenes": [
    {
      "name": "OSG_Scene",
      "nodes": [
        0
      ]
    }
  ]
}

