{
  "accessors": [
    {
      "bufferView": 2,
      "componentType": 5126,
      "count": 644,
      "max": [
        1.0266200304031372,
        1.0266200304031372,
        0.22792999446392059
      ],
      "min": [
        -1.0266200304031372,
        -1.0266200304031372,
        -0.22792999446392059
      ],
      "type": "VEC3"
    },
    {
      "bufferView": 2,
      "byteOffset": 7728,
      "componentType": 5126,
      "count": 644,
      "max": [
        0.71781474351882935,
        0.71781474351882935,
        1
      ],
      "min": [
        -0.71781474351882935,
        -0.71781474351882935,
        -1
      ],
      "type": "VEC3"
    },
    {
      "bufferView": 3,
      "componentType": 5126,
      "count": 644,
      "max": [
        0.99993079900741577,
        0.999930739402771,
        0.024547610431909561,
        1
      ],
      "min": [
        -0.999930739402771,
        -0.999930739402771,
        -0.024547610431909561,
        1
      ],
      "type": "VEC4"
    },
    {
      "bufferView": 1,
      "componentType": 5126,
      "count": 644,
      "max": [
        5.3545598983764648,
        1.0025099515914917
      ],
      "min": [
        -4.3545598983764648,
        0
      ],
      "type": "VEC2"
    },
    {
      "bufferView": 0,
      "componentType": 5125,
      "count": 1920,
      "max": [
        643
      ],
      "min": [
        0
      ],
      "type": "SCALAR"
    },
    {
      "bufferView": 2,
      "byteOffset": 15456,
      "componentType": 5126,
      "count": 260,
      "max": [
        1.0266200304031372,
        1.0266200304031372,
        0.22792999446392059
      ],
      "min": [
        -1.0266200304031372,
        -1.0266200304031372,
        -0.22792999446392059
      ],
      "type": "VEC3"
    },
    {
      "bufferView": 2,
      "byteOffset": 18576,
      "componentType": 5126,
      "count": 260,
      "max": [
        0.71781474351882935,
        0.71781474351882935,
        0.69624221324920654
      ],
      "min": [
        -0.71781474351882935,
        -0.71781474351882935,
        -0.69624221324920654
      ],
      "type": "VEC3"
    },
    {
      "bufferView": 3,
      "byteOffset": 10304,
      "componentType": 5126,
      "count": 260,
      "max": [
        0.99993526935577393,
        0.99993526935577393,
        0.024526815861463547,
        1
      ],
      "min": [
        -0.99993491172790527,
        -0.99993503093719482,
        -0.024526815861463547,
        1
      ],
      "type": "VEC4"
    },
    {
      "bufferView": 0,
      "byteOffset": 7680,
      "componentType": 5125,
      "count": 768,
      "max": [
        259
      ],
      "min": [
        0
      ],
      "type": "SCALAR"
    }
  ],
  "asset": {
    "extras": {
      "author": "Mike Rowley (https://sketchfab.com/scrumpy26)",
      "license": "CC-BY-NC-4.0 (http://creativecommons.org/licenses/by-nc/4.0/)",
      "source": "https://sketchfab.com/models/dae01621bc204a0aafa6d8f627d13457",
      "title": "Bracelet"
    },
    "generator": "Sketchfab-3.20.7",
    "version": "2.0"
  },
  "bufferViews": [
    {
      "buffer": 0,
      "byteLength": 10752,
      "byteOffset": 0,
      "name": "floatBufferViews",
      "target": 34963
    },
    {
      "buffer": 0,
      "byteLength": 5152,
      "byteOffset": 10752,
      "byteStride": 8,
      "name": "floatBufferViews",
      "target": 34962
    },
    {
      "buffer": 0,
      "byteLength": 21696,
      "byteOffset": 15904,
      "byteStride": 12,
      "name": "floatBufferViews",
      "target": 34962
    },
    {
      "buffer": 0,
      "byteLength": 14464,
      "byteOffset": 37600,
      "byteStride": 16,
      "name": "floatBufferViews",
      "target": 34962
    }
  ],
  "buffers": [
    {
      "byteLength": 52064,
      "uri": "scene.bin"
    }
  ],
  "images": [
    {
      "uri": "textures/Material.001_baseColor.png"
    }
  ],
  "materials": [
    {
      "alphaMode": "BLEND",
      "doubleSided": true,
      "emissiveFactor": [
        0,
        0,
        0
      ],
      "name": "Material.001",
      "pbrMetallicRoughness": {
        "baseColorFactor": [
          0.91178897209999998,
          0.32648942809999998,
          0.0117239844,
          1
        ],
        "baseColorTexture": {
          "index": 0,
          "texCoord": 0
        },
        "metallicFactor": 1,
        "roughnessFactor": 0.032999999799999999
      }
    },
    {
      "doubleSided": true,
      "emissiveFactor": [
        0,
        0,
        0
      ],
      "name": "Material.002",
      "pbrMetallicRoughness": {
        "baseColorFactor": [
          0.8556051858,
          0.3048919417,
          0.020267372299999999,
          1
        ],
        "metallicFactor": 1,
        "roughnessFactor": 0.032999999799999999
      }
    }
  ],
  "meshes": [
    {
      "name": "Cylinder_0",
      "primitives": [
        {
          "attributes": {
            "NORMAL": 1,
            "POSITION": 0,
            "TANGENT": 2,
            "TEXCOORD_0": 3
          },
          "indices": 4,
          "material": 0,
          "mode": 4
        }
      ]
    },
    {
      "name": "Cylinder_1",
      "primitives": [
        {
          "attributes": {
            "NORMAL": 6,
            "POSITION": 5,
            "TANGENT": 7
          },
          "indices": 8,
          "material": 1,
          "mode": 4
        }
      ]
    }
  ],
  "nodes": [
    {
      "children": [
        1
      ],
      "name": "RootNode (gltf orientation matrix)",
      "rotation": [
        -0.70710678118654746,
        -0,
        -0,
        0.70710678118654757
      ]
    },
    {
      "children": [
        2
      ],
      "name": "RootNode (model correction matrix)"
    },
    {
      "children": [
        3,
        5
      ],
      "name": "Root"
    },
    {
      "children": [
        4
      ],
      "matrix": [
        -0.25252999999999998,
        0.14510000000000001,
        0.95665000000000011,
        0,
        -0.95721000000000001,
        -0.18187,
        -0.22510000000000002,
        0,
        0.14132,
        -0.97255999999999987,
        0.18482000000000001,
        0,
        4.0762500000000008,
        -6.4495600000000008,
        5.9038600000000008,
        1
      ],
      "name": "Lamp"
    },
    {
      "name": "Lamp"
    },
    {
      "children": [
        6,
        7
      ],
      "name": "Cylinder"
    },
    {
      "mesh": 0,
      "name": "Cylinder_0"
    },
    {
      "mesh": 1,
      "name": "Cylinder_1"
    }
  ],
  "samplers": [
    {
      "magFilter": 9729,
      "minFilter": 9987,
      "wrapS": 10497,
      "wrapT": 10497
    }
  ],
  "scene": 0,
  "scenes": [
    {
      "name": "OSG_Scene",
      "nodes": [
        0
      ]
    }
  ],
  "textures": [
    {
      "sampler": 0,
      "source": 0
    }
  ]
}

