{
  "accessors": [
    {
      "bufferView": 1,
      "componentType": 5126,
      "count": 13193,
      "max": [
        0.9945099949836731,
        0.4181399941444397,
        0.9962499737739563
      ],
      "min": [
        -0.9945099949836731,
        -0.4181399941444397,
        -1.0637400150299072
      ],
      "type": "VEC3"
    },
    {
      "bufferView": 1,
      "byteOffset": 158316,
      "componentType": 5126,
      "count": 13193,
      "max": [
        0.99993133544921875,
        1,
        0.9992939829826355
      ],
      "min": [
        -0.99993133544921875,
        -1,
        -1
      ],
      "type": "VEC3"
    },
    {
      "bufferView": 0,
      "componentType": 5125,
      "count": 78774,
      "max": [
        13192
      ],
      "min": [
        0
      ],
      "type": "SCALAR"
    },
    {
      "bufferView": 1,
      "byteOffset": 316632,
      "componentType": 5126,
      "count": 24640,
      "max": [
        1.0808299779891968,
        0.070569999516010284,
        1.0661200284957886
      ],
      "min": [
        -1.0712499618530273,
        -0.067570000886917114,
        -1.0741499662399292
      ],
      "type": "VEC3"
    },
    {
      "bufferView": 1,
      "byteOffset": 612312,
      "componentType": 5126,
      "count": 24640,
      "max": [
        0.9999382495880127,
        0.99997955560684204,
        0.99985748529434204
      ],
      "min": [
        -0.99997204542160034,
        -0.9999580979347229,
        -0.99993050098419189
      ],
      "type": "VEC3"
    },
    {
      "bufferView": 0,
      "byteOffset": 315096,
      "componentType": 5125,
      "count": 147456,
      "max": [
        24639
      ],
      "min": [
        0
      ],
      "type": "SCALAR"
    },
    {
      "bufferView": 1,
      "byteOffset": 907992,
      "componentType": 5126,
      "count": 160,
      "max": [
        0.93711000680923462,
        0.92948001623153687,
        0.27952000498771667
      ],
      "min": [
        -0.93839001655578613,
        -0.93006002902984619,
        -0.40000000596046448
      ],
      "type": "VEC3"
    },
    {
      "bufferView": 1,
      "byteOffset": 909912,
      "componentType": 5126,
      "count": 160,
      "max": [
        0.92267197370529175,
        0.94243985414505005,
        0.99999862909317017
      ],
      "min": [
        -0.92230647802352905,
        -0.948505699634552,
        -0.99890905618667603
      ],
      "type": "VEC3"
    },
    {
      "bufferView": 0,
      "byteOffset": 904920,
      "componentType": 5125,
      "count": 948,
      "max": [
        159
      ],
      "min": [
        0
      ],
      "type": "SCALAR"
    },
    {
      "bufferView": 2,
      "componentType": 5126,
      "count": 1,
      "max": [
        0.041669998317956924
      ],
      "min": [
        0.041669998317956924
      ],
      "type": "SCALAR"
    },
    {
      "bufferView": 4,
      "componentType": 5126,
      "count": 1,
      "max": [
        -0.25363001227378845,
        0.94859999418258667,
        0.048889998346567154,
        0.18287000060081482
      ],
      "min": [
        -0.25363001227378845,
        0.94859999418258667,
        0.048889998346567154,
        0.18287000060081482
      ],
      "type": "VEC4"
    },
    {
      "bufferView": 2,
      "byteOffset": 4,
      "componentType": 5126,
      "count": 1,
      "max": [
        0.041669998317956924
      ],
      "min": [
        0.041669998317956924
      ],
      "type": "SCALAR"
    },
    {
      "bufferView": 4,
      "byteOffset": 16,
      "componentType": 5126,
      "count": 1,
      "max": [
        -0,
        -0.38267999887466431,
        -0,
        0.92387998104095459
      ],
      "min": [
        -0,
        -0.38267999887466431,
        -0,
        0.92387998104095459
      ],
      "type": "VEC4"
    },
    {
      "bufferView": 2,
      "byteOffset": 8,
      "componentType": 5126,
      "count": 2,
      "max": [
        0.083329997956752777
      ],
      "min": [
        0.041669998317956924
      ],
      "type": "SCALAR"
    },
    {
      "bufferView": 3,
      "componentType": 5126,
      "count": 2,
      "max": [
        0,
        -0,
        -1.0148700475692749
      ],
      "min": [
        -0.0015099999727681279,
        -0,
        -1.0234899520874023
      ],
      "type": "VEC3"
    },
    {
      "bufferView": 2,
      "byteOffset": 16,
      "componentType": 5126,
      "count": 1,
      "max": [
        0.041669998317956924
      ],
      "min": [
        0.041669998317956924
      ],
      "type": "SCALAR"
    },
    {
      "bufferView": 4,
      "byteOffset": 32,
      "componentType": 5126,
      "count": 1,
      "max": [
        -0,
        1,
        0,
        0
      ],
      "min": [
        -0,
        1,
        0,
        0
      ],
      "type": "VEC4"
    }
  ],
  "animations": [
    {
      "channels": [
        {
          "sampler": 0,
          "target": {
            "node": 3,
            "path": "rotation"
          }
        },
        {
          "sampler": 1,
          "target": {
            "node": 5,
            "path": "rotation"
          }
        },
        {
          "sampler": 2,
          "target": {
            "node": 7,
            "path": "translation"
          }
        },
        {
          "sampler": 3,
          "target": {
            "node": 7,
            "path": "rotation"
          }
        }
      ],
      "name": "Take 01",
      "samplers": [
        {
          "input": 9,
          "interpolation": "LINEAR",
          "output": 10
        },
        {
          "input": 11,
          "interpolation": "LINEAR",
          "output": 12
        },
        {
          "input": 13,
          "interpolation": "LINEAR",
          "output": 14
        },
        {
          "input": 15,
          "interpolation": "LINEAR",
          "output": 16
        }
      ]
    }
  ],
  "asset": {
    "extras": {
      "author": "taigo (https://sketchfab.com/taigo)",
      "license": "CC-BY-4.0 (http://creativecommons.org/licenses/by/4.0/)",
      "source": "https://sketchfab.com/models/53d05a2840b544cd8bb4c4c478e27644",
      "title": "Narya, Gandalf's ring"
    },
    "generator": "Sketchfab-3.18.6",
    "version": "2.0"
  },
  "bufferViews": [
    {
      "buffer": 0,
      "byteLength": 908712,
      "byteOffset": 0,
      "name": "floatBufferViews",
      "target": 34963
    },
    {
      "buffer": 0,
      "byteLength": 911832,
      "byteOffset": 908712,
      "byteStride": 12,
      "name": "floatBufferViews",
      "target": 34962
    },
    {
      "buffer": 0,
      "byteLength": 20,
      "byteOffset": 1820544,
      "name": "floatBufferViews"
    },
    {
      "buffer": 0,
      "byteLength": 24,
      "byteOffset": 1820564,
      "byteStride": 12,
      "name": "floatBufferViews"
    },
    {
      "buffer": 0,
      "byteLength": 48,
      "byteOffset": 1820588,
      "byteStride": 16,
      "name": "floatBufferViews"
    }
  ],
  "buffers": [
    {
      "byteLength": 1820636,
      "uri": "scene.bin"
    }
  ],
  "materials": [
    {
      "doubleSided": true,
      "emissiveFactor": [
        0,
        0,
        0
      ],
      "name": "gold",
      "pbrMetallicRoughness": {
        "baseColorFactor": [
          0.3749243578,
          0.2646152879,
          0.094721510100000003,
          1
        ],
        "metallicFactor": 1,
        "roughnessFactor": 0.19340701220000001
      }
    },
    {
      "alphaMode": "BLEND",
      "doubleSided": true,
      "emissiveFactor": [
        0.0050000000000000001,
        0.0050000000000000001,
        0.0050000000000000001
      ],
      "name": "Rubi",
      "pbrMetallicRoughness": {
        "baseColorFactor": [
          0.12930118905000001,
          0.0024441292700000004,
          0.0024441292700000004,
          0.995
        ],
        "metallicFactor": 0.91600000000000004,
        "roughnessFactor": 0.099275914600000001
      }
    }
  ],
  "meshes": [
    {
      "name": "Plane.001_0",
      "primitives": [
        {
          "attributes": {
            "NORMAL": 1,
            "POSITION": 0
          },
          "indices": 2,
          "material": 0,
          "mode": 4
        }
      ]
    },
    {
      "name": "BezierCircle.013_0",
      "primitives": [
        {
          "attributes": {
            "NORMAL": 4,
            "POSITION": 3
          },
          "indices": 5,
          "material": 0,
          "mode": 4
        }
      ]
    },
    {
      "name": "Gem.001_0",
      "primitives": [
        {
          "attributes": {
            "NORMAL": 7,
            "POSITION": 6
          },
          "indices": 8,
          "material": 1,
          "mode": 4
        }
      ]
    }
  ],
  "nodes": [
    {
      "children": [
        1
      ],
      "name": "RootNode (gltf orientation matrix)",
      "rotation": [
        -0.70710678118654746,
        -0,
        -0,
        0.70710678118654757
      ]
    },
    {
      "children": [
        2
      ],
      "name": "RootNode (model correction matrix)"
    },
    {
      "children": [
        3
      ],
      "name": "Root"
    },
    {
      "children": [
        4,
        5,
        7
      ],
      "name": "Plane.001",
      "rotation": [
        -0.25362980365753174,
        0.94859921932220459,
        0.048889957368373871,
        0.18286985158920288
      ],
      "translation": [
        0,
        0,
        1
      ]
    },
    {
      "mesh": 0,
      "name": "Plane.001_0"
    },
    {
      "children": [
        6
      ],
      "name": "BezierCircle.013",
      "rotation": [
        -0,
        -0.38268035650253296,
        -0,
        0.92388087511062622
      ],
      "scale": [
        0.97903001308441162,
        0.97903001308441162,
        0.97903001308441162
      ]
    },
    {
      "mesh": 1,
      "name": "BezierCircle.013_0"
    },
    {
      "children": [
        8
      ],
      "name": "Gem.001",
      "rotation": [
        -0,
        1,
        0,
        0
      ],
      "scale": [
        0.43158000707626343,
        0.33618998527526855,
        0.43158000707626343
      ],
      "translation": [
        -0.0015099999727681279,
        -0,
        -1.0148700475692749
      ]
    },
    {
      "mesh": 2,
      "name": "Gem.001_0"
    }
  ],
  "scene": 0,
  "scenes": [
    {
      "name": "OSG_Scene",
      "nodes": [
        0
      ]
    }
  ]
}

