{
  "accessors": [
    {
      "bufferView": 2,
      "componentType": 5126,
      "count": 5754,
      "max": [
        0.9921799898147583,
        0.99250000715255737,
        0.09984000027179718
      ],
      "min": [
        -0.99237000942230225,
        -0.9924200177192688,
        -0.53979998826980591
      ],
      "type": "VEC3"
    },
    {
      "bufferView": 2,
      "byteOffset": 69048,
      "componentType": 5126,
      "count": 5754,
      "max": [
        0.99882227182388306,
        0.99926167726516724,
        0.99999994039535522
      ],
      "min": [
        -0.99931979179382324,
        -0.99973607063293457,
        -0.99999994039535522
      ],
      "type": "VEC3"
    },
    {
      "bufferView": 3,
      "componentType": 5126,
      "count": 5754,
      "max": [
        0,
        0,
        0,
        1
      ],
      "min": [
        0,
        0,
        0,
        1
      ],
      "type": "VEC4"
    },
    {
      "bufferView": 0,
      "componentType": 5125,
      "count": 32352,
      "max": [
        5753
      ],
      "min": [
        0
      ],
      "type": "SCALAR"
    },
    {
      "bufferView": 2,
      "byteOffset": 138096,
      "componentType": 5126,
      "count": 2660,
      "max": [
        0.95780998468399048,
        0.97592002153396606,
        0.038369998335838318
      ],
      "min": [
        -0.96171998977661133,
        -0.96268999576568604,
        -0.47863999009132385
      ],
      "type": "VEC3"
    },
    {
      "bufferView": 2,
      "byteOffset": 170016,
      "componentType": 5126,
      "count": 2660,
      "max": [
        1,
        0.99998122453689575,
        0.91881561279296875
      ],
      "min": [
        -1,
        -1,
        -0.99901491403579712
      ],
      "type": "VEC3"
    },
    {
      "bufferView": 3,
      "byteOffset": 92064,
      "componentType": 5126,
      "count": 2660,
      "max": [
        0.9999731183052063,
        0.99999994039535522,
        0.89219391345977783,
        1
      ],
      "min": [
        -1,
        -0.99999994039535522,
        -0.9577939510345459,
        -1
      ],
      "type": "VEC4"
    },
    {
      "bufferView": 1,
      "componentType": 5126,
      "count": 2660,
      "max": [
        0.9863399863243103,
        0.8077399730682373
      ],
      "min": [
        0.013659999705851078,
        0.16619999706745148
      ],
      "type": "VEC2"
    },
    {
      "bufferView": 0,
      "byteOffset": 129408,
      "componentType": 5125,
      "count": 14256,
      "max": [
        2659
      ],
      "min": [
        0
      ],
      "type": "SCALAR"
    }
  ],
  "asset": {
    "extras": {
      "author": "Mike Rowley (https://sketchfab.com/scrumpy26)",
      "license": "CC-BY-NC-4.0 (http://creativecommons.org/licenses/by-nc/4.0/)",
      "source": "https://sketchfab.com/models/663eca794d524b0e93e7e2eb33b5ed25",
      "title": "Bracelet"
    },
    "generator": "Sketchfab-3.20.7",
    "version": "2.0"
  },
  "bufferViews": [
    {
      "buffer": 0,
      "byteLength": 186432,
      "byteOffset": 0,
      "name": "floatBufferViews",
      "target": 34963
    },
    {
      "buffer": 0,
      "byteLength": 21280,
      "byteOffset": 186432,
      "byteStride": 8,
      "name": "floatBufferViews",
      "target": 34962
    },
    {
      "buffer": 0,
      "byteLength": 201936,
      "byteOffset": 207712,
      "byteStride": 12,
      "name": "floatBufferViews",
      "target": 34962
    },
    {
      "buffer": 0,
      "byteLength": 134624,
      "byteOffset": 409648,
      "byteStride": 16,
      "name": "floatBufferViews",
      "target": 34962
    }
  ],
  "buffers": [
    {
      "byteLength": 544272,
      "uri": "scene.bin"
    }
  ],
  "images": [
    {
      "uri": "textures/Material_baseColor.png"
    }
  ],
  "materials": [
    {
      "doubleSided": true,
      "emissiveFactor": [
        0,
        0,
        0
      ],
      "name": "Material.001",
      "pbrMetallicRoughness": {
        "baseColorFactor": [
          0.35260612689999998,
          0.137395819,
          0.0047327606999999997,
          1
        ],
        "metallicFactor": 1,
        "roughnessFactor": 0.26000000000000001
      }
    },
    {
      "alphaCutoff": 0.55000000000000004,
      "alphaMode": "MASK",
      "doubleSided": true,
      "emissiveFactor": [
        0,
        0,
        0
      ],
      "name": "Material",
      "pbrMetallicRoughness": {
        "baseColorFactor": [
          0.73253298550000001,
          0.23650128770000001,
          0.0026867629,
          1
        ],
        "baseColorTexture": {
          "index": 0,
          "texCoord": 0
        },
        "metallicFactor": 1,
        "roughnessFactor": 0.089999999999999997
      }
    }
  ],
  "meshes": [
    {
      "name": "Circle",
      "primitives": [
        {
          "attributes": {
            "NORMAL": 1,
            "POSITION": 0,
            "TANGENT": 2
          },
          "indices": 3,
          "material": 0,
          "mode": 4
        }
      ]
    },
    {
      "name": "Circle",
      "primitives": [
        {
          "attributes": {
            "NORMAL": 5,
            "POSITION": 4,
            "TANGENT": 6,
            "TEXCOORD_0": 7
          },
          "indices": 8,
          "material": 1,
          "mode": 4
        }
      ]
    }
  ],
  "nodes": [
    {
      "children": [
        1
      ],
      "name": "RootNode (gltf orientation matrix)",
      "rotation": [
        -0.70710678118654746,
        -0,
        -0,
        0.70710678118654757
      ]
    },
    {
      "children": [
        2
      ],
      "name": "RootNode (model correction matrix)"
    },
    {
      "children": [
        3,
        5
      ],
      "name": "Root"
    },
    {
      "children": [
        4
      ],
      "matrix": [
        -0.25252999999999998,
        0.14510000000000001,
        0.95665000000000011,
        0,
        -0.95721000000000001,
        -0.18187,
        -0.22510000000000002,
        0,
        0.14132,
        -0.97255999999999987,
        0.18482000000000001,
        0,
        4.0762500000000008,
        -6.4495600000000008,
        5.9038600000000008,
        1
      ],
      "name": "Lamp"
    },
    {
      "name": "Lamp"
    },
    {
      "children": [
        6,
        7
      ],
      "name": "Circle"
    },
    {
      "mesh": 0,
      "name": "Circle"
    },
    {
      "mesh": 1,
      "name": "Circle"
    }
  ],
  "samplers": [
    {
      "magFilter": 9729,
      "minFilter": 9729,
      "wrapS": 10497,
      "wrapT": 10497
    }
  ],
  "scene": 0,
  "scenes": [
    {
      "name": "OSG_Scene",
      "nodes": [
        0
      ]
    }
  ],
  "textures": [
    {
      "sampler": 0,
      "source": 0
    }
  ]
}

